<svg width="24" height="24" viewBox="0 0 24 24" fill="none" xmlns="http://www.w3.org/2000/svg">
<path fill-rule="evenodd" clip-rule="evenodd" d="M3.32107 4.74233C3.32107 4.33235 3.65409 4 4.0649 4H19.6515C20.0623 4 20.3953 4.33235 20.3953 4.74233V14.2972L21.9624 19.0245C22.0374 19.2508 21.9989 19.4992 21.8591 19.6924C21.7192 19.8856 21.495 20 21.2562 20H2.74383C2.512 20 2.29343 19.8921 2.15271 19.7083C2.01199 19.5244 1.96522 19.2856 2.02621 19.0624L3.32107 14.3238V4.74233ZM18.9077 13.676V5.48466H4.80872V13.676H18.9077ZM4.634 15.162L3.71767 18.5153H20.2266L19.1151 15.162H4.634ZM12.3911 6.94918C12.7408 7.16426 12.8496 7.62156 12.6341 7.97059L12.6323 7.9735C12.4168 8.32253 11.9585 8.43111 11.6088 8.21603C11.2591 8.00094 11.1503 7.54364 11.3658 7.19461L11.3676 7.19171C11.5831 6.84268 12.0413 6.7341 12.3911 6.94918Z" fill="url(#paint0_linear_71_35)"/>
<defs>
<linearGradient id="paint0_linear_71_35" x1="27.7321" y1="20" x2="27.7321" y2="4" gradientUnits="userSpaceOnUse">
<stop stop-color="#FC8507"/>
<stop offset="1" stop-color="#FFA218"/>
</linearGradient>
</defs>
</svg>
