<svg xmlns="http://www.w3.org/2000/svg" width="18" height="14"><path fill="#fff" d="M17.102 13.754H5.065c-.496 0-.898-.415-.898-.928 0-.513.402-.928.898-.928h12.037c.496 0 .898.415.898.928 0 .513-.402.928-.898.928zm0-5.826H5.065c-.496 0-.898-.416-.898-.93 0-.511.402-.927.898-.927h12.037c.496 0 .898.416.898.928 0 .513-.402.929-.898.929zm0-5.828H5.065c-.496 0-.898-.415-.898-.928 0-.512.402-.928.898-.928h12.037c.496 0 .898.416.898.928 0 .513-.402.928-.898.928zM1.206-.002c.666 0 1.206.558 1.206 1.246 0 .689-.54 1.247-1.206 1.247-.667 0-1.207-.558-1.207-1.247C0 .556.54-.002 1.206-.002zm0 5.755c.666 0 1.206.558 1.206 1.246 0 .689-.54 1.247-1.206 1.247-.667 0-1.207-.558-1.207-1.247 0-.688.54-1.246 1.207-1.246zm0 5.754c.666 0 1.206.559 1.206 1.247 0 .689-.54 1.247-1.206 1.247-.667 0-1.207-.558-1.207-1.247 0-.688.54-1.247 1.207-1.247z"/></svg>