<svg xmlns="http://www.w3.org/2000/svg" width="25" height="25"><path fill="#555" d="M24.957 23.836c.021.087.043.172.043.28a.872.872 0 0 1-.883.882H.85a.88.88 0 0 1-.667-.301.847.847 0 0 1-.194-.71L2.873 6.544a.859.859 0 0 1 .861-.732h4.95V3.788A3.796 3.796 0 0 1 12.474 0a3.795 3.795 0 0 1 3.788 3.79v2.024h4.95a.86.86 0 0 1 .862.732zM10.45 5.813h4.046V3.788a2.022 2.022 0 0 0-2.023-2.024c-1.12 0-2.023.905-2.023 2.024zm12.613 17.442L20.458 7.579h-4.197v4.93a.873.873 0 0 1-.882.883.873.873 0 0 1-.883-.882V7.579H10.45v4.93a.873.873 0 0 1-.883.883.873.873 0 0 1-.882-.882V7.579H4.488L1.883 23.255z"/></svg>