<svg xmlns="http://www.w3.org/2000/svg" width="27" height="25"><path fill="#555" d="M27 7.89c0 2.104-.78 4.081-2.193 5.57L14.035 24.764a.754.754 0 0 1-.544.234.758.758 0 0 1-.544-.24L2.198 13.436C.784 11.946 0 9.976 0 7.872c-.006-2.105.773-4.082 2.187-5.57C3.595.819 5.472-.001 7.464-.001c1.998 0 3.88.825 5.294 2.314l.75.79.739-.778C15.66.836 17.537.017 19.535.017c1.998 0 3.87.814 5.283 2.303C26.232 3.808 27.005 5.786 27 7.89zm-1.546 0c0-1.67-.613-3.237-1.735-4.419-1.121-1.176-2.61-1.827-4.19-1.827-1.579 0-3.073.651-4.195 1.833l-1.282 1.35a.743.743 0 0 1-1.093 0l-1.294-1.362C10.543 2.284 9.05 1.632 7.464 1.632c-1.58 0-3.068.652-4.184 1.827-1.122 1.175-1.734 2.742-1.734 4.413 0 1.67.618 3.237 1.74 4.419L13.49 23.04l10.23-10.732a6.346 6.346 0 0 0 1.735-4.418z"/></svg>