<svg xmlns="http://www.w3.org/2000/svg" width="42" height="42"><path fill="#0063d1" d="M15.381 33.322l-2.125 2.11a4.756 4.756 0 0 1-6.68 0 4.596 4.596 0 0 1-1.37-3.284 4.6 4.6 0 0 1 1.37-3.285l7.822-7.762c1.622-1.607 4.672-3.974 6.894-1.77a2.602 2.602 0 1 0 3.668-3.693c-3.779-3.75-9.363-3.057-14.227 1.77l-7.823 7.76A9.766 9.766 0 0 0 0 32.148a9.762 9.762 0 0 0 2.91 6.978A9.914 9.914 0 0 0 9.917 42a9.917 9.917 0 0 0 7.007-2.875l2.127-2.111a2.602 2.602 0 1 0-3.669-3.692zm23.707-30.15c-4.058-4.026-9.732-4.244-13.49-.517l-2.648 2.63a2.603 2.603 0 0 0 3.668 3.693l2.648-2.628c1.946-1.933 4.494-1.132 6.156.517a4.594 4.594 0 0 1 1.373 3.286 4.6 4.6 0 0 1-1.372 3.286l-8.346 8.28c-3.816 3.785-5.606 2.008-6.37 1.25a2.603 2.603 0 0 0-3.667 3.693c1.752 1.74 3.751 2.601 5.848 2.601 2.566 0 5.277-1.292 7.855-3.852l8.346-8.28A9.772 9.772 0 0 0 42 10.153a9.773 9.773 0 0 0-2.91-6.979z"/></svg>