<svg xmlns="http://www.w3.org/2000/svg" width="26" height="26"><path fill="#1f2126" d="M13 0c7.18 0 13 5.82 13 13s-5.82 13-13 13S0 20.18 0 13 5.82 0 13 0z" opacity=".6"/><path fill="#fff" d="M18 14.188v.25c0 .258-.224.468-.5.468h-9c-.276 0-.5-.21-.5-.469v-.25c0-.138.066-.27.18-.359L11 11.625v-3.75c-.552 0-1-.42-1-.938S10.448 6 11 6h4c.552 0 1 .42 1 .937 0 .518-.448.938-1 .938v3.75l2.82 2.203c.114.09.18.22.18.36zm-4 1.655v4.22a.455.455 0 0 1-.147.33l-.5.47A.516.516 0 0 1 13 21a.516.516 0 0 1-.354-.138l-.5-.468a.454.454 0 0 1-.146-.332v-4.219z"/></svg>