<svg xmlns="http://www.w3.org/2000/svg" width="43" height="43"><defs><clipPath id="a"><path fill="#fff" d="M0 43V0h43v43zm1-21.5C1 32.82 10.178 42 21.5 42S42 32.82 42 21.5C42 10.177 32.822 1 21.5 1S1 10.177 1 21.5z"/></clipPath></defs><g opacity=".5"><path fill="#fff" d="M21.5 1C32.822 1 42 10.177 42 21.5 42 32.82 32.822 42 21.5 42S1 32.82 1 21.5C1 10.177 10.178 1 21.5 1z"/><path fill="none" stroke="#494d58" stroke-linecap="round" stroke-linejoin="round" stroke-miterlimit="20" stroke-width="2" d="M21.5 1C32.822 1 42 10.177 42 21.5 42 32.82 32.822 42 21.5 42S1 32.82 1 21.5C1 10.177 10.178 1 21.5 1z" clip-path="url(&quot;#a&quot;)"/></g><path fill="#494d58" d="M28 21.499l-9-5.5v11z"/></svg>