<svg xmlns="http://www.w3.org/2000/svg" width="51" height="51"><path fill="#fff" d="M15.191 25.472c0 5.684 4.624 10.308 10.308 10.308 3.65 0 7.063-1.96 8.907-5.116a1.486 1.486 0 0 1 2.565 1.5A13.335 13.335 0 0 1 25.5 38.75c-7.322 0-13.279-5.957-13.279-13.28 0-7.321 5.958-13.279 13.28-13.279 7.321 0 13.278 5.958 13.278 13.28a1.486 1.486 0 0 1-2.97 0c0-5.684-4.625-10.309-10.308-10.309-5.684 0-10.309 4.625-10.309 10.309zm35.624 3.09a7.702 7.702 0 0 1-4.113 5.925c-2.15 1.11-4.58 1.098-6.668-.034a1.485 1.485 0 1 1 1.416-2.611c1.21.655 2.627.658 3.888.006a4.734 4.734 0 0 0 2.527-3.643 23.07 23.07 0 0 0 .099-4.478c-.822-10.946-9.692-19.851-20.633-20.714C20.711 2.49 14.238 4.87 9.568 9.54c-4.67 4.67-7.048 11.144-6.526 17.764.86 10.9 9.727 19.767 20.626 20.627 6.619.522 13.093-1.857 17.763-6.527a1.486 1.486 0 0 1 2.1 2.1 25.513 25.513 0 0 1-18.063 7.468c-.676 0-1.354-.026-2.034-.08C11.094 49.92 1.054 39.88.08 27.538-.51 20.05 2.182 12.724 7.468 7.44 12.753 2.153 20.078-.539 27.565.051c12.387.977 22.43 11.06 23.361 23.454a26.02 26.02 0 0 1-.111 5.057z"/></svg>