<svg xmlns="http://www.w3.org/2000/svg" width="33" height="37"><path fill="#fff" d="M32.99 35.248v1.749H.009v-1.749c0-8.574 5.543-11.14 9.211-12.838.75-.345 1.515-.7 2.041-1.033-2.8-2.097-4.538-5.765-4.538-9.791 0-6.39 4.386-11.588 9.777-11.588 5.39 0 9.776 5.198 9.776 11.588 0 4.017-1.74 7.694-4.536 9.793.527.334 1.291.686 2.036 1.032 3.67 1.698 9.213 4.263 9.214 12.837zm-29.326-1.75v-.001zm0-.001h25.668c-.64-4.946-4.034-6.517-7.063-7.918-1.541-.713-2.871-1.329-3.758-2.348l-.31-.355-.603-3.165 1.166-.6c2.37-1.219 3.962-4.243 3.962-7.525 0-4.46-2.794-8.088-6.228-8.088-3.433 0-6.227 3.628-6.227 8.088 0 3.314 1.615 6.349 4.02 7.55l1.186.594-.559 2.945-.246.326c-.874 1.157-2.297 1.816-3.945 2.578-3.029 1.401-6.422 2.973-7.063 7.918z"/></svg>