<svg xmlns="http://www.w3.org/2000/svg" width="17" height="26"><path fill="#9fa1a6" d="M8.5 13.766c1.173 0 2.125.959 2.125 2.141A2.133 2.133 0 0 1 8.5 18.05a2.133 2.133 0 0 1-2.125-2.142c0-1.182.951-2.141 2.125-2.141zM17 0v24.167h-2.125V26H12.75v-1.833h-8.5V26H2.125v-1.833H0V0zM5.768 5.2A2.742 2.742 0 0 0 8.5 7.953 2.742 2.742 0 0 0 11.232 5.2 2.743 2.743 0 0 0 8.5 2.447 2.743 2.743 0 0 0 5.768 5.2zm8.196 10.707c0-3.04-2.447-5.506-5.464-5.506-3.018 0-5.464 2.465-5.464 5.506 0 3.041 2.446 5.507 5.464 5.507 3.017 0 5.464-2.466 5.464-5.507zM8.5 4.282c.503 0 .91.411.91.918a.914.914 0 0 1-.91.918.914.914 0 0 1-.911-.918c0-.507.408-.918.91-.918z"/></svg>