<svg xmlns="http://www.w3.org/2000/svg" width="22" height="17"><path fill="#9fa1a6" d="M22 2.467v3.29h-7.37a5.175 5.175 0 0 0-3.499-1.37c-1.342 0-2.564.52-3.498 1.37H0v-3.29h2.12v-1.37h1.856v1.37h3.18L7.953 0h6.361l.795 2.468zm0 4.662v7.129C22 15.766 20.807 17 19.35 17H2.65C1.193 17 0 15.766 0 14.258v-7.13h6.546a5.597 5.597 0 0 0-.715 2.743c0 3.029 2.374 5.483 5.301 5.483 2.928 0 5.302-2.454 5.302-5.483 0-1-.263-1.936-.715-2.742zM15.108 9.87c0 2.267-1.783 4.113-3.976 4.113-2.192 0-3.976-1.846-3.976-4.113 0-2.268 1.784-4.113 3.976-4.113 2.193 0 3.976 1.845 3.976 4.113z"/></svg>