<svg xmlns="http://www.w3.org/2000/svg" width="22" height="19"><path fill="#9fa1a6" d="M22 11.402v5.066h-1.712v-5.066a9.77 9.77 0 0 0-2.72-6.808c-1.684-1.745-4-2.82-6.568-2.82-2.567 0-4.884 1.075-6.568 2.82a9.773 9.773 0 0 0-2.72 6.808v5.064H0v-5.064C0 8.256 1.233 5.4 3.222 3.34 5.21 1.278 7.965 0 11 0c3.035 0 5.79 1.278 7.778 3.34C20.767 5.4 22 8.256 22 11.402zm-2.934-1.27V19h-2.689c-1.21 0-2.2-1.14-2.2-2.534v-3.8c0-1.394.99-2.534 2.2-2.534h2.69zM7.822 12.665v3.801c0 1.394-.99 2.534-2.2 2.534H2.933v-8.868h2.69c1.21 0 2.2 1.14 2.2 2.533z"/></svg>