<svg xmlns="http://www.w3.org/2000/svg" width="23" height="22"><path fill="#9fa1a6" d="M20.755 17.39l.052.4-3.864.735-1.883 3.47-3.555-1.69L7.953 22l-1.888-3.468-3.865-.73.5-3.922L0 11.007 2.696 8.13l-.505-3.922 3.865-.734L7.939.004l3.554 1.69L15.046 0l1.887 3.467 3.865.73-.5 3.921L23 10.993l-2.697 2.877zM9.04 10.576c.942 0 1.707-.77 1.707-1.717 0-.949-.765-1.717-1.707-1.717-.944 0-1.708.768-1.708 1.717 0 .948.764 1.717 1.708 1.717zm5.68-2.704l-1.116-.888-5.407 6.867 1.116.889zm.864 5.279c0-.949-.764-1.717-1.707-1.717-.943 0-1.708.768-1.708 1.717 0 .948.765 1.717 1.708 1.717s1.707-.769 1.707-1.717z"/></svg>