<svg xmlns="http://www.w3.org/2000/svg" width="16" height="12"><path fill="#fff" d="M.745 2.672C.429 2.25.27 1.857.27 1.495c0-.449.12-.823.358-1.122.239-.3.58-.449 1.023-.449h12.698c.373 0 .697.136.97.406s.41.595.41.974c0 .455-.14.889-.423 1.303a4.102 4.102 0 0 1-1.052 1.061l-4.037 2.803-.367.264a9.616 9.616 0 0 1-.914.608 2.687 2.687 0 0 1-.496.233c-.156.051-.3.078-.432.078h-.017c-.132 0-.276-.027-.431-.078a2.667 2.667 0 0 1-.496-.233 9.256 9.256 0 0 1-.915-.608l-.366-.264a549.8 549.8 0 0 0-2.26-1.573 555.686 555.686 0 0 1-1.769-1.23 4.256 4.256 0 0 1-1.01-.996zM15.729 3.84v6.849c0 .38-.135.704-.405.975-.27.27-.596.406-.975.406H1.65c-.38 0-.705-.135-.975-.406a1.33 1.33 0 0 1-.406-.975V3.84c.253.283.544.533.872.751 2.082 1.415 3.51 2.407 4.287 2.976.328.242.594.43.798.565.204.136.476.273.815.415.34.14.656.211.949.211h.017c.294 0 .61-.07.95-.211.339-.142.61-.279.814-.415.205-.135.47-.323.798-.565.978-.707 2.41-1.699 4.296-2.976a4.76 4.76 0 0 0 .863-.75z" opacity=".5"/></svg>