<svg xmlns="http://www.w3.org/2000/svg" width="14" height="17"><path fill="#fff" d="M7.283.65C2.807.65.55 3.86.55 6.535c0 1.62.614 3.063 1.93 3.6.215.088.409.003.472-.236.043-.165.146-.582.192-.757.063-.235.039-.318-.136-.524-.379-.448-.622-1.028-.622-1.849 0-2.38 1.782-4.512 4.64-4.512 2.53 0 3.92 1.546 3.92 3.61 0 2.717-1.203 5.01-2.987 5.01-.986 0-1.724-.813-1.487-1.815.283-1.193.831-2.481.831-3.343 0-.771-.414-1.415-1.27-1.415-1.008 0-1.817 1.043-1.817 2.44 0 .889.3 1.491.3 1.491L3.303 13.37c-.36 1.523-.054 3.392-.028 3.579.015.112.159.14.224.054.092-.12 1.293-1.603 1.7-3.084.116-.419.663-2.59.663-2.59.328.626 1.285 1.175 2.302 1.175 3.03 0 5.084-2.76 5.084-6.457 0-2.794-2.367-5.397-5.965-5.397z" opacity=".5"/></svg>