<svg xmlns="http://www.w3.org/2000/svg" width="18" height="12"><path fill="#fff" d="M15.986 5.34c.965-.078 1.62-.518 1.872-1.113-.348.214-1.429.447-2.026.225a7.483 7.483 0 0 0-.093-.394c-.455-1.669-2.012-3.013-3.643-2.851.132-.053.266-.103.4-.147.179-.065 1.232-.236 1.066-.608-.14-.326-1.426.248-1.669.322.32-.12.85-.326.906-.695-.49.068-.971.3-1.343.637a.926.926 0 0 0 .258-.511c-1.307.836-2.071 2.52-2.689 4.152-.485-.47-.915-.84-1.3-1.047-1.083-.58-2.377-1.185-4.408-1.94-.063.673.332 1.566 1.47 2.16-.247-.033-.698.041-1.058.127.147.77.626 1.405 1.924 1.71-.593.04-.9.175-1.178.467.27.534.93 1.164 2.115 1.035-1.318.569-.537 1.62.535 1.463-1.83 1.89-4.715 1.75-6.371.172 4.325 5.892 13.728 3.484 15.13-2.194 1.049.01 1.666-.363 2.049-.772-.605.102-1.482-.004-1.947-.198z" opacity=".5"/></svg>