<svg xmlns="http://www.w3.org/2000/svg" width="23" height="22"><path fill="#9fa1a6" d="M23 7.12c0 .722-.105 1.445-.287 2.153-.164.635-.43 1.255-.759 1.87-.33.616-.724 1.225-1.155 1.823-.863 1.195-1.879 2.35-2.833 3.361l-.481.512.258 2.129c.202 1.668-.968 3.031-2.6 3.031H3.265C1.633 22 .463 20.636.665 18.968l.782-6.44 1.068-8.79L0-.001h15.439l.13 1.072c1.388.012 2.57.202 3.57.562 1.031.37 1.87.926 2.492 1.627.415.467.73.994.95 1.548A6.25 6.25 0 0 1 23 7.12zM7.422 15.278a.905.905 0 0 0 .891-.917.904.904 0 0 0-.89-.917.903.903 0 0 0-.891.917c0 .505.398.917.89.917zm2.079 3.513c0-.59-.466-1.07-1.04-1.07-.574 0-1.039.48-1.039 1.07 0 .59.465 1.07 1.04 1.07.573 0 1.039-.48 1.039-1.07zm2.672-2.903a.904.904 0 0 0-.89-.916c-.493 0-.891.41-.891.916s.398.917.89.917.891-.41.891-.917zm-8.557-3.972h11.176L13.604 2.14h-8.8l-1.188 9.777zm17.305-4.795c0-.624-.111-1.185-.335-1.67a3.117 3.117 0 0 0-1.076-1.266 4.72 4.72 0 0 0-1.317-.62c-.634-.196-1.417-.324-2.363-.35l1.13 9.312.192 1.575c.467-.517.931-1.055 1.364-1.6.642-.81 1.213-1.633 1.618-2.39.27-.505.466-.98.57-1.386a6.506 6.506 0 0 0 .217-1.605z"/></svg>