<svg xmlns="http://www.w3.org/2000/svg" width="20" height="23"><path fill="#9fa1a6" d="M20 7.224v3.538a2.76 2.76 0 0 1-.845 1.98 2.916 2.916 0 0 1-2.034.822h-2.49l-.389 1.474L17.878 23H0l3.636-7.962-3.03-11.5v-.59H.601V1.474h4.55V0h7.576v1.474h4.54v.885h.005v1.18l-.233.884h.385c.383-.001.751.093 1.07.252.32.159.593.38.815.639.442.518.69 1.188.69 1.91zm-8.788 11.5c0-1.222-1.017-2.212-2.273-2.212-1.255 0-2.273.99-2.273 2.212 0 1.222 1.018 2.211 2.273 2.211 1.256 0 2.273-.99 2.273-2.211zm3.636-14.296v-.005H3.028L5.67 14.448h6.538l.388-1.474h-1.739l.296-1.474h1.832l.388-1.475h-1.858l.296-1.474h1.95l1.087-4.123zm3.03 6.334V7.224c0-.19-.05-.356-.123-.48a.568.568 0 0 0-.225-.23.23.23 0 0 0-.106-.027h-.929l-1.32 5.013h1.946a.76.76 0 0 0 .534-.218.72.72 0 0 0 .224-.52z"/></svg>