<svg xmlns="http://www.w3.org/2000/svg" width="19" height="22"><path fill="#9fa1a6" d="M19 0v19.027A2.98 2.98 0 0 1 16.03 22H2.97A2.98 2.98 0 0 1 0 19.027V-.001zm-5.047 3.12a1.337 1.337 0 1 0 1.336-1.337c-.738 0-1.336.598-1.336 1.337zm-3.86 0a1.337 1.337 0 1 0 2.674.002 1.337 1.337 0 0 0-2.673-.002zm-3.859 0A1.337 1.337 0 1 0 7.57 1.784c-.738 0-1.336.598-1.336 1.337zm-3.859 0a1.337 1.337 0 1 0 2.674.002 1.337 1.337 0 0 0-2.674-.002zm13.953 15.906v-8.622H2.672v8.622zm.594-13.082H2.078v1.487h14.844z"/></svg>