<svg xmlns="http://www.w3.org/2000/svg" width="41" height="48"><path fill="#959595" d="M26.285 34.328c0 2.295-1.836 4.171-4.118 4.201h-.229v1.707c0 .658-.535 1.197-1.19 1.197-.655 0-1.19-.539-1.19-1.197v-1.707h-2.343a1.198 1.198 0 0 1 0-2.395h4.892a1.8 1.8 0 0 0 1.796-1.806 1.8 1.8 0 0 0-1.796-1.807h-2.729c-2.302 0-4.177-1.886-4.177-4.2 0-2.316 1.875-4.202 4.177-4.202h.17v-1.666c0-.659.535-1.198 1.19-1.198.655 0 1.19.539 1.19 1.198v1.666h2.253a1.197 1.197 0 0 1 0 2.395h-4.803a1.8 1.8 0 0 0-1.795 1.806 1.8 1.8 0 0 0 1.795 1.806h2.73c2.301 0 4.177 1.887 4.177 4.202zM41 38.708C41 43.829 36.852 48 31.762 48H9.238C4.148 48 0 43.83 0 38.71c0-3.852.793-7.654 2.361-11.297 1.25-2.894 2.987-5.698 5.16-8.322 2.59-3.124 5.17-5.24 6.52-6.247L8.582 4.55a1.21 1.21 0 0 1 .139-1.497C10.577 1.137 12.472.24 14.695.24c1.756 0 3.572.539 5.934 1.407.178.07.357.1.565.1.685 0 1.528-.36 2.421-.729C24.747.537 26.046 0 27.465 0c1.548 0 2.937.629 4.247 1.917.387.369.467.947.219 1.417l-5.061 9.44c1.34.988 3.969 3.123 6.608 6.317 2.183 2.624 3.91 5.428 5.16 8.322C40.206 31.055 41 34.857 41 38.71zM16.312 11.935h8.296l4.762-8.9c-.813-.58-1.458-.66-1.915-.66-.942 0-1.915.41-2.937.839-1.061.449-2.173.908-3.334.908-.476 0-.942-.08-1.379-.24-2.113-.788-3.701-1.267-5.11-1.267-1.32 0-2.421.44-3.572 1.437zM38.598 38.71c0-6.407-2.321-12.464-6.916-18.033-2.897-3.523-5.834-5.717-6.737-6.347h-8.91c-.893.639-3.84 2.824-6.738 6.347-4.584 5.569-6.916 11.636-6.916 18.033 0 3.802 3.076 6.895 6.857 6.895h22.524c3.78 0 6.856-3.093 6.836-6.895z"/></svg>