<svg xmlns="http://www.w3.org/2000/svg" width="37" height="37"><path fill="#959595" d="M36.936 35.279c.032.127.064.255.064.414 0 .733-.573 1.307-1.305 1.307H1.287c-.382 0-.732-.16-.987-.447a1.254 1.254 0 0 1-.286-1.051L4.279 9.688a1.271 1.271 0 0 1 1.273-1.084h7.321V5.61c0-3.092 2.515-5.61 5.602-5.61 3.088 0 5.602 2.518 5.602 5.61v2.995h7.32c.637 0 1.179.446 1.274 1.084zM15.483 8.604h5.984V5.61a2.99 2.99 0 0 0-2.992-2.996 2.99 2.99 0 0 0-2.992 2.996zm18.652 25.814l-3.851-23.2h-6.207v7.297c0 .733-.573 1.307-1.305 1.307a1.292 1.292 0 0 1-1.305-1.307v-7.298h-5.984v7.298c0 .733-.573 1.307-1.305 1.307a1.292 1.292 0 0 1-1.305-1.307v-7.298H6.666L2.815 34.418z"/></svg>