<svg xmlns="http://www.w3.org/2000/svg" width="43" height="42"><path fill="#959595" d="M35.775 24.603c2.262 2.982 1.759 6.212-1.508 9.443-4.271 3.726-7.79 4.722-10.05 4.722-2.01 0-3.267-.745-3.518-.745-.252 0-.252-.249-.503-.497 0-.249-1.005-1.491-.754-3.728-2.512-.249-4.774-1.74-7.035-3.728-2.262-2.236-3.518-4.473-3.77-6.958-2.26 0-3.769-.746-3.769-.746-.25 0-.25-.249-.502-.497-.251-.249-3.518-5.716 4.272-13.42 3.266-3.23 6.784-3.728 9.548-1.491.503-.497.754-.745 1.005-.745C25.724.993 31.252-.001 34.771-.001c4.02 0 6.28 1.492 6.28 1.492.252 0 .252.248.503.497.252.248 5.277 8.946-5.025 21.621-.251.248-.502.497-.754.994zm-1.758-1.988c.25-.249.502-.497.502-.497s0-.248.251-.248c8.292-10.19 5.78-17.148 5.026-18.64-.503-.248-2.262-.993-4.774-.993-3.016 0-8.041.994-14.072 5.964 0 0-.25 0-.25.249-.252 0-.503.248-.503.497-1.006.745-1.257.993-1.76.993-.25 0-.753-.248-1.004-.248-2.01-1.988-4.272-1.74-6.785.746-5.277 5.219-4.523 8.946-4.02 9.94.502.249 1.759.498 3.266.249.252 0 .754 0 1.005.249.252.248.503.497.503.994 0 2.237 1.005 4.473 3.266 6.461 2.01 1.988 4.272 3.23 6.533 3.23.252 0 .754.249 1.005.498.252.248.252.745.252.994-.754 1.242-.503 2.234-.251 2.733.25.249 1.005.249 2.01.249 1.759 0 4.774-.746 8.292-4.225 3.266-3.23 2.01-5.467.753-6.71-.753-.745-.25-1.74.755-2.485zM9.894 34.047L3.612 40.26c0-.003-.251.248-.754.248-.251 0-.753 0-1.005-.248a1.192 1.192 0 0 1 0-1.74l6.282-6.213a1.224 1.224 0 0 1 1.759 0 1.192 1.192 0 0 1 0 1.74zM1.35 32.556c-.252 0-.754 0-1.005-.249a1.192 1.192 0 0 1 0-1.74l3.266-3.23a1.224 1.224 0 0 1 1.759 0 1.192 1.192 0 0 1 0 1.74l-3.266 3.23c0 .249-.503.249-.754.249zm13.568 4.225a1.192 1.192 0 0 1 0 1.739l-3.266 3.23c-.251.25-.503.25-.754.25s-.754 0-1.005-.25a1.193 1.193 0 0 1 0-1.74l3.267-3.23a1.223 1.223 0 0 1 1.758 0zm15.83-25.1c1.006.993 1.76 2.484 1.76 3.975s-.503 2.983-1.76 3.977c-1.004.994-2.512 1.739-4.02 1.739-1.507 0-3.015-.497-4.02-1.74-2.261-2.237-2.261-5.715 0-7.952s6.03-2.237 8.04 0zm-.753 3.973c0-.746-.251-1.74-1.005-2.237-.754-.497-1.257-.994-2.262-.994-.753 0-1.759.249-2.261.994a3.126 3.126 0 0 0 0 4.474 3.21 3.21 0 0 0 4.523 0c.502-.498 1.005-1.492 1.005-2.237z"/></svg>