<svg xmlns="http://www.w3.org/2000/svg" width="57" height="49"><path fill="#959595" d="M21.38 18.267c-.998 0-1.929.54-2.429 1.41a1.356 1.356 0 0 1-1.86.5 1.375 1.375 0 0 1-.496-1.87 5.538 5.538 0 0 1 4.785-2.78c1.966 0 3.8 1.065 4.785 2.78a1.374 1.374 0 0 1-.497 1.87 1.358 1.358 0 0 1-1.86-.5 2.812 2.812 0 0 0-2.428-1.41zm9.586 13.11a1.357 1.357 0 0 1 1.86-.5c.65.38.873 1.217.496 1.872a5.54 5.54 0 0 1-4.785 2.78 5.54 5.54 0 0 1-4.785-2.78 1.375 1.375 0 0 1 .497-1.872 1.356 1.356 0 0 1 1.86.5c.5.871 1.43 1.412 2.428 1.412s1.929-.541 2.43-1.412zM57 19.44v6.246c0 2.33-1.821 4.292-4.136 4.292h-2.513a23.35 23.35 0 0 1-3.899 7.33c-2.898 3.678-6.887 6.35-11.322 7.697A4.382 4.382 0 0 1 30.756 49H26.32c-2.422 0-4.392-1.975-4.392-4.413s1.97-4.413 4.392-4.413h4.437c1.594 0 2.992.883 3.762 2.165 8.387-2.611 14.149-10.383 14.149-19.326A20.288 20.288 0 0 0 35.515 4.008a23.102 23.102 0 0 1-7.301 5.969 22.797 22.797 0 0 1-11.714 2.5 1.366 1.366 0 0 1-1.285-1.442 1.36 1.36 0 0 1 1.433-1.292c.375.02.754.03 1.125.03 5.746 0 11.06-2.381 14.868-6.598a20.032 20.032 0 0 0-3.973-.425c-.004 0-.01-.004-.015-.004-.01 0-.023-.007-.033-.007h-.083c-11.099 0-20.07 9.102-20.07 20.273v5.529c0 .756-.668 1.437-1.42 1.437H4.211C1.896 29.978 0 28.015 0 25.686V19.44a4.217 4.217 0 0 1 2.921-4.022 1.363 1.363 0 0 1 1.718.884c.23.72-.167 1.492-.882 1.723a1.51 1.51 0 0 0-1.036 1.415v6.246c0 .819.676 1.553 1.49 1.553h1.534v-4.227C5.745 10.33 15.937-.001 28.538-.001h.355c.004 0 .011.01.016.01.007 0 .014.008.021.008a.305.305 0 0 1 .034 0h.039l.016.001h.023l.016.001h.016a.53.53 0 0 0 .023.001h.016l.016.001h.039l.016.001h.054c.006 0 .012-.002.018 0 .007 0 .013-.005.02-.003.006 0 .01-.007.016-.007.012 0 .023-.012.035-.012h.02c2.079.152 4.128.45 6.104 1.08.027.01.055.042.081.052 9.19 2.98 15.856 11.687 15.856 21.914a23.98 23.98 0 0 1-.368 4.193h1.844c.814 0 1.414-.734 1.414-1.553v-6.245c0-.637-.4-1.219-1.006-1.415-.715-.232-1.085-1.004-.855-1.724.23-.72.982-1.115 1.697-.884C55.858 15.983 57 17.6 57 19.441zM32.426 44.604c0-.113-.01-.198-.032-.305l-.008-.051c-.168-.75-.835-1.336-1.63-1.336H26.32c-.921 0-1.67.747-1.67 1.674a1.67 1.67 0 0 0 1.67 1.674h4.437c.921 0 1.67-.728 1.67-1.656zM30.91 18.306a5.538 5.538 0 0 1 4.785-2.779c1.966 0 3.8 1.065 4.785 2.78a1.374 1.374 0 0 1-.497 1.87 1.35 1.35 0 0 1-1.859-.5 2.812 2.812 0 0 0-2.429-1.41c-.998 0-1.928.54-2.43 1.41a1.355 1.355 0 0 1-1.858.5 1.374 1.374 0 0 1-.497-1.87z"/></svg>