<svg xmlns="http://www.w3.org/2000/svg" width="18" height="22"><path fill="#9fa1a6" d="M13.996 12.547c-.712-.028-1.295-.652-1.3-.657-.662-.632-1.524-.511-2.196.002-.462.354-1.008.922-1.627.658-1.072-.44-1.941-1.834-3.173-.657 0 0-.626.704-1.178.725-.216.008-.381-.092-.513-.168.095-2.783 2.294-5.018 4.99-5.018 2.73 0 4.95 2.287 4.997 5.115zM18 0v19.028C18 20.662 16.714 22 15.143 22H2.857C1.286 22 0 20.662 0 19.027V-.001zm-7.43 2.824c0 .574.448 1.04 1 1.04.553 0 1-.466 1-1.04 0-.575-.447-1.04-1-1.04-.552 0-1 .465-1 1.04zM2 3.567h3.143V2.081H2zm13.429 9.068c0-3.695-2.878-6.69-6.43-6.69-3.55 0-6.428 2.995-6.428 6.69 0 3.694 2.878 6.689 6.429 6.689 3.55 0 6.429-2.995 6.429-6.69zm.57-9.811c0-.575-.447-1.04-1-1.04-.552 0-.999.465-.999 1.04s.447 1.04 1 1.04c.553 0 1-.465 1-1.04z"/></svg>