<svg xmlns="http://www.w3.org/2000/svg" width="13" height="15"><path fill="#a8aab4" d="M11.263.86c.915 0 1.663.693 1.663 1.704v9.867c0 1.01-.748 1.704-1.663 1.704H1.634c-.914 0-1.662-.694-1.662-1.704V2.564C-.028 1.554.72.86 1.634.86zM8.825 2.932v1.431c0 .329.263.597.584.597h1.464c.32 0 .583-.268.583-.597v-1.43a.592.592 0 0 0-.583-.598H9.409a.592.592 0 0 0-.584.597zm1.497 3.542c.108.361.166.743.166 1.138 0 2.209-1.803 3.998-4.027 3.998S2.435 9.82 2.435 7.612c0-.395.058-.777.166-1.138H1.41v5.607c0 .29.232.528.515.528h9.021a.524.524 0 0 0 .515-.528V6.474zM6.46 4.884a2.593 2.593 0 0 0-2.602 2.584 2.593 2.593 0 0 0 2.602 2.584 2.593 2.593 0 0 0 2.602-2.584A2.593 2.593 0 0 0 6.46 4.885z"/></svg>