<svg xmlns="http://www.w3.org/2000/svg" width="11" height="15"><path fill="#a8aab4" d="M6.038.782c-3.723 0-5.6 2.78-5.6 5.098 0 1.404.51 2.653 1.605 3.118.18.077.34.003.392-.204.036-.143.122-.505.16-.656.052-.204.032-.275-.113-.454-.315-.388-.517-.89-.517-1.602 0-2.061 1.482-3.908 3.858-3.908 2.104 0 3.26 1.34 3.26 3.128 0 2.353-1 4.34-2.484 4.34-.82 0-1.433-.706-1.237-1.573.236-1.033.692-2.149.692-2.895 0-.67-.344-1.226-1.057-1.226-.838 0-1.51.903-1.51 2.113 0 .77.25 1.291.25 1.291l-1.009 4.447c-.3 1.32-.045 2.938-.023 3.101.012.098.132.12.186.048.077-.105 1.075-1.39 1.415-2.672.096-.363.55-2.243.55-2.243.273.541 1.068 1.017 1.915 1.017 2.518 0 4.227-2.39 4.227-5.593 0-2.42-1.968-4.675-4.96-4.675z"/></svg>