<svg xmlns="http://www.w3.org/2000/svg" width="15" height="12"><path fill="#a8aab4" d="M13.908.28a5.804 5.804 0 0 1-1.86.727A2.888 2.888 0 0 0 9.91.06c-1.617 0-2.928 1.344-2.928 3 0 .236.026.464.076.684-2.434-.126-4.592-1.32-6.036-3.136a3.037 3.037 0 0 0-.396 1.509c0 1.04.518 1.96 1.303 2.497a2.87 2.87 0 0 1-1.327-.377v.038c0 1.454 1.01 2.666 2.349 2.943a2.897 2.897 0 0 1-1.323.05C2 8.46 3.082 9.329 4.363 9.354a5.788 5.788 0 0 1-4.335 1.243 8.148 8.148 0 0 0 4.489 1.348c5.386 0 8.33-4.573 8.33-8.538l-.009-.389a5.989 5.989 0 0 0 1.464-1.55 5.759 5.759 0 0 1-1.681.47A3.003 3.003 0 0 0 13.908.28z"/></svg>