<svg xmlns="http://www.w3.org/2000/svg" width="16" height="16"><path fill="#494d58" d="M15.375 1.809v13.063c0 .604-.504 1.093-1.127 1.093H1.251c-.622 0-1.126-.488-1.126-1.093V1.81C.125 1.205.629.716 1.25.716h12.997c.623 0 1.127.489 1.127 1.093zM4.748 6.596H2.444v6.885h2.304zm.15-2.13c-.014-.676-.5-1.19-1.287-1.19-.788 0-1.304.514-1.304 1.19 0 .66.5 1.19 1.274 1.19h.015c.803 0 1.303-.53 1.303-1.19zm8.156 5.067c0-2.116-1.137-3.1-2.653-3.1-1.223 0-1.77.67-2.076 1.138v-.975H6.022c.03.646 0 6.885 0 6.885h2.303V9.635c0-.206.015-.41.077-.558.166-.411.544-.837 1.182-.837.833 0 1.166.631 1.166 1.557v3.684h2.304zM8.31 7.594c.003-.007.009-.014.014-.023v.023z" opacity=".5"/></svg>