<svg xmlns="http://www.w3.org/2000/svg" width="26" height="14"><path fill="#555" d="M25.174 6.378a.856.856 0 0 1 .256.62.856.856 0 0 1-.256.62c-.235.256-6.109 6.046-12.174 6.046-6.066 0-11.918-5.79-12.174-6.047a.856.856 0 0 1-.257-.62c0-.234.086-.448.257-.619C1.06 6.122 6.934.332 13 .332c6.087 0 11.939 5.79 12.174 6.046zm-1.901.599C21.628 5.524 17.25 2.063 13 2.063S4.37 5.523 2.726 6.977C4.371 8.429 8.75 11.89 13 11.89c4.25 0 8.628-3.461 10.273-4.913zM13.02 3.814a3.155 3.155 0 0 1 3.161 3.163 3.154 3.154 0 0 1-3.16 3.16 3.167 3.167 0 0 1-3.162-3.16 3.17 3.17 0 0 1 3.161-3.163zM13 5.566c-.79 0-1.41.62-1.41 1.41a1.409 1.409 0 1 0 2.82 0c0-.768-.641-1.389-1.41-1.41z"/></svg>