<svg xmlns="http://www.w3.org/2000/svg" width="23" height="23"><path fill="#555" d="M22.96 21.929c.02.08.04.158.04.258a.803.803 0 0 1-.812.812H.782a.811.811 0 0 1-.614-.278.78.78 0 0 1-.178-.653L2.643 6.02a.79.79 0 0 1 .792-.673H7.99V3.485A3.49 3.49 0 0 1 11.475 0a3.491 3.491 0 0 1 3.485 3.486v1.863h4.554a.79.79 0 0 1 .793.673zM9.614 5.349h3.722V3.484a1.86 1.86 0 0 0-1.861-1.862 1.86 1.86 0 0 0-1.861 1.862zm11.603 16.046L18.821 6.972H14.96v4.537a.803.803 0 0 1-.812.812.803.803 0 0 1-.812-.812V6.972H9.614v4.537a.803.803 0 0 1-.812.812.803.803 0 0 1-.812-.812V6.972H4.128L1.732 21.395z"/></svg>