<svg xmlns="http://www.w3.org/2000/svg" width="20" height="20"><path fill="#555" d="M20 5.435a.91.91 0 0 1-.91.91H3.103l2.994 2.998a.911.911 0 0 1-.643 1.554.905.905 0 0 1-.643-.267L.266 6.079a.911.911 0 0 1 0-1.288L4.81.24a.908.908 0 0 1 1.286 0 .911.911 0 0 1 0 1.287L3.103 4.525H19.09a.91.91 0 0 1 .91.91zm-.267 8.459a.911.911 0 0 1 0 1.287l-4.545 4.552a.905.905 0 0 1-1.286 0 .911.911 0 0 1 0-1.288l2.994-2.997H.909a.91.91 0 0 1 0-1.82h15.987l-2.994-2.998a.911.911 0 0 1 0-1.287.908.908 0 0 1 1.286 0z"/></svg>