<svg xmlns="http://www.w3.org/2000/svg" width="21" height="18"><path fill="#555" d="M18.794 9.727l-7.69 7.71a.844.844 0 0 1-.767.234.834.834 0 0 1-.446-.233L2.2 9.728a5.533 5.533 0 0 1 0-7.804A5.462 5.462 0 0 1 6.092.308c1.47 0 2.853.573 3.893 1.616l.512.513.512-.513A5.462 5.462 0 0 1 14.902.308a5.46 5.46 0 0 1 3.892 1.616 5.534 5.534 0 0 1 0 7.803zM17.593 3.13a3.77 3.77 0 0 0-2.69-1.117 3.77 3.77 0 0 0-2.69 1.117L11.1 4.246a.875.875 0 0 1-1.203 0L8.782 3.13a3.77 3.77 0 0 0-2.69-1.117 3.77 3.77 0 0 0-2.69 1.117 3.824 3.824 0 0 0 0 5.392l7.095 7.113 7.095-7.113a3.823 3.823 0 0 0 0-5.392z"/></svg>