<svg xmlns="http://www.w3.org/2000/svg" width="56" height="56"><path fill="#0063d1" d="M28 3.5C14.492 3.5 3.5 14.492 3.5 28S14.492 52.5 28 52.5 52.5 41.508 52.5 28 41.508 3.5 28 3.5c0 0 13.508 0 0 0zM28 0c15.463 0 28 12.537 28 28S43.463 56 28 56 0 43.463 0 28 12.537 0 28 0zM17.094 25.232A10.701 10.701 0 0 1 17 23.88c0-6.008 4.925-10.877 11.001-10.877 6.075 0 11 4.87 11 10.877 0 .452-.036.896-.092 1.334-.916 8.498-10.037 18.306-10.037 18.306a1.741 1.741 0 0 1-.476.379l-.009.004-.307.094-.309-.094-.007-.004a1.73 1.73 0 0 1-.477-.38s-9.253-9.792-10.193-18.287zm3.83-1.352c0 3.856 3.176 6.996 7.077 6.996 3.902 0 7.076-3.14 7.076-6.996 0-3.857-3.174-6.997-7.076-6.997-3.9 0-7.076 3.14-7.076 6.997z"/></svg>