<svg xmlns="http://www.w3.org/2000/svg" width="56" height="56"><path fill="#0063d1" d="M28 3.5C14.492 3.5 3.5 14.492 3.5 28S14.492 52.5 28 52.5 52.5 41.508 52.5 28 41.508 3.5 28 3.5c0 0 13.508 0 0 0zM28 0c15.463 0 28 12.537 28 28S43.463 56 28 56 0 43.463 0 28 12.537 0 28 0zM15.829 21.749c-.553-.73-.829-1.41-.829-2.036 0-.776.208-1.423.625-1.94.417-.517 1.012-.776 1.786-.776h22.178a2.34 2.34 0 0 1 1.695.702c.477.467.716 1.029.716 1.685 0 .786-.246 1.537-.738 2.253a7.127 7.127 0 0 1-1.838 1.835 12030.77 12030.77 0 0 0-7.052 4.848c-.1.07-.314.221-.64.455-.327.234-.598.423-.814.567-.216.145-.477.306-.783.485a4.579 4.579 0 0 1-.866.403c-.272.09-.523.134-.754.134h-.03c-.231 0-.482-.045-.754-.134a4.585 4.585 0 0 1-.866-.403 15.58 15.58 0 0 1-.784-.485 31.361 31.361 0 0 1-.813-.567l-.64-.455a751.38 751.38 0 0 0-3.948-2.722 709.535 709.535 0 0 1-3.089-2.126c-.622-.417-1.21-.992-1.762-1.723zm26.17 2.021v11.845c0 .657-.235 1.218-.707 1.686a2.333 2.333 0 0 1-1.703.701H17.411c-.663 0-1.23-.233-1.703-.7A2.287 2.287 0 0 1 15 35.614V23.77c.442.488.95.92 1.522 1.298 3.636 2.447 6.132 4.162 7.488 5.147a34.55 34.55 0 0 0 1.394.977c.356.234.83.473 1.423.716.593.244 1.146.365 1.658.365h.03c.513 0 1.065-.121 1.657-.365.593-.243 1.068-.482 1.424-.716.357-.233.821-.56 1.394-.977 1.707-1.223 4.209-2.939 7.503-5.147A8.281 8.281 0 0 0 42 23.77z"/></svg>