<svg xmlns="http://www.w3.org/2000/svg" width="56" height="56"><path fill="#0063d1" d="M28 3.5C14.492 3.5 3.5 14.492 3.5 28S14.492 52.5 28 52.5 52.5 41.508 52.5 28 41.508 3.5 28 3.5c0 0 13.508 0 0 0zM28 0c15.463 0 28 12.537 28 28S43.463 56 28 56 0 43.463 0 28 12.537 0 28 0zm13.143 39.427L39.15 41.42c-.355.355-1.398.577-1.43.577a23.522 23.522 0 0 1-16.835-6.882A23.547 23.547 0 0 1 14 18.223c0-.003.228-1.015.583-1.367l1.993-1.993c.73-.733 2.13-1.064 3.111-.735l.42.14c.978.327 2.005 1.41 2.275 2.405l1.003 3.68c.27 1-.094 2.421-.823 3.15l-1.331 1.331a14.133 14.133 0 0 0 9.938 9.941l1.33-1.33c.733-.733 2.154-1.097 3.151-.827l3.68 1.005c.996.274 2.077 1.295 2.406 2.273l.14.425c.324.979-.004 2.38-.733 3.106z"/></svg>